<svg height="511pt" viewBox="0 0 511.99875 511" width="511pt" xmlns="http://www.w3.org/2000/svg"><path d="m84.496094 175.910156c-12.578125-12.578125-12.578125-32.964844 0-45.542968 12.574218-12.574219 32.964844-12.574219 45.542968 0l7.65625 7.65625c34.625 34.625 88.824219 40.128906 129.699219 13.167968l-98.179687-98.179687c-36.421875-36.421875-95.476563-36.421875-131.898438 0-36.421875 36.421875-36.421875 95.476562 0 131.898437l19.785156 19.785156c6.988282 6.992188 18.324219 6.992188 25.3125 0l2.777344-2.773437c6.988282-6.992187 6.988282-18.324219 0-25.316406zm0 0" fill="#ff9357"/><path d="m77.988281 209.121094c-6.035156 16.503906-2.878906 35.605468 9.484375 49.382812 2.648438-1.515625 5.140625-3.390625 7.402344-5.652344 7.847656-7.851562 11.1875-18.496093 10.035156-28.734374 10.234375 1.15625 20.882813-2.183594 28.730469-10.035157 2.261719-2.257812 4.140625-4.753906 5.652344-7.398437-13.773438-12.363282-32.875-15.519532-49.378907-9.484375" fill="#ff9d6c"/><path d="m270.339844 362.296875c-12.578125-12.578125-12.578125-32.96875 0-45.542969 12.574218-12.578125 32.964844-12.578125 45.542968 0l7.65625 7.65625c34.625 34.625 88.824219 40.125 129.699219 13.164063l-98.179687-98.175781c-36.421875-36.425782-95.476563-36.425782-131.898438 0-36.425781 36.421874-36.425781 95.476562 0 131.898437l19.78125 19.785156c6.992188 6.988281 18.328125 6.988281 25.316406 0l2.777344-2.777343c6.988282-6.988282 6.988282-18.324219 0-25.316407zm0 0" fill="#ff9357"/><path d="m263.832031 395.507812c-6.035156 16.503907-2.878906 35.605469 9.484375 49.382813 2.644532-1.515625 5.140625-3.394531 7.398438-5.652344 7.851562-7.851562 11.191406-18.496093 10.035156-28.734375 10.238281 1.152344 20.882812-2.183594 28.734375-10.035156 2.257813-2.257812 4.136719-4.753906 5.652344-7.398438-13.773438-12.363281-32.878907-15.523437-49.382813-9.484374" fill="#ff9d6c"/><path d="m466.289062 218.503906c47.582032-47.582031 47.582032-124.722656 0-172.304687-47.578124-47.582031-124.722656-47.582031-172.304687 0zm0 0" fill="#cbe558"/><path d="m438.3125 190.527344c32.128906-32.128906 32.128906-84.21875 0-116.347656-32.128906-32.128907-84.21875-32.128907-116.347656 0zm0 0" fill="#e2f1a1"/><path d="m217.988281 466.804688c-47.578125 47.582031-124.722656 47.582031-172.304687 0-47.578125-47.582032-47.578125-124.722657 0-172.304688zm0 0" fill="#d8ec84"/><path d="m190.011719 438.828125c-32.128907 32.128906-84.222657 32.128906-116.347657 0-32.128906-32.128906-32.128906-84.21875 0-116.347656zm0 0" fill="#e2f1a1"/><path d="m191.039062 135.308594c2.632813 0 5.210938-1.070313 7.070313-2.929688s2.929687-4.441406 2.929687-7.070312-1.070312-5.210938-2.929687-7.070313-4.4375-2.929687-7.070313-2.929687c-2.628906 0-5.207031 1.070312-7.066406 2.929687s-2.933594 4.441407-2.933594 7.070313 1.070313 5.210937 2.933594 7.070312c1.867188 1.859375 4.4375 2.929688 7.066406 2.929688zm0 0"/><path d="m376.882812 321.148438c2.628907 0 5.207032-1.066407 7.066407-2.929688 1.863281-1.859375 2.929687-4.4375 2.929687-7.070312 0-2.628907-1.066406-5.207032-2.929687-7.066407-1.859375-1.859375-4.4375-2.933593-7.066407-2.933593-2.632812 0-5.210937 1.070312-7.070312 2.933593-1.859375 1.859375-2.929688 4.4375-2.929688 7.066407 0 2.632812 1.070313 5.210937 2.929688 7.070312s4.4375 2.929688 7.070312 2.929688zm0 0"/><path d="m376.433594 362.804688c2.84375.515624 5.710937.9375 8.601562 1.230468 23.109375 2.347656 46.46875-2.566406 66.664063-13.855468l8.753906 8.757812c5.890625 5.886719 13.621094 8.832031 21.355469 8.832031s15.472656-2.945312 21.359375-8.832031c11.773437-11.777344 11.773437-30.9375 0-42.714844-3.90625-3.902344-10.234375-3.902344-14.144531 0-3.902344 3.90625-3.902344 10.234375 0 14.140625 3.980468 3.980469 3.980468 10.453125.003906 14.433594-3.980469 3.976563-10.453125 3.976563-14.433594 0l-14.261719-14.265625c-.007812-.007812-.015625-.015625-.027343-.027344l-98.175782-98.175781c-35.148437-35.148437-89.535156-39.613281-129.574218-13.398437l-41.964844-41.964844c2.84375.511718 5.710937.933594 8.601562 1.226562 23.109375 2.347656 46.472656-2.566406 66.664063-13.855468l8.757812 8.757812c5.886719 5.890625 13.621094 8.832031 21.355469 8.832031 7.730469 0 15.46875-2.945312 21.355469-8.832031 11.777343-11.777344 11.777343-30.9375 0-42.714844-3.90625-3.902344-10.234375-3.902344-14.140625 0-3.90625 3.90625-3.90625 10.238282 0 14.144532 3.976562 3.976562 3.976562 10.449218 0 14.429687-3.980469 3.976563-10.457032 3.980469-14.433594 0l-14.261719-14.261719c-.007812-.011718-.015625-.019531-.023437-.03125l-98.179688-98.175781c-35.144531-35.148437-89.53125-39.609375-129.570312-13.394531l-29.644532-29.644532c-3.90625-3.90625-10.234374-3.90625-14.140624 0-3.90625 3.902344-3.90625 10.234376 0 14.140626l28.117187 28.117187c-.265625.261719-.535156.515625-.800781.78125-40.265625 40.265625-40.265625 105.777344 0 146.042969l19.785156 19.78125c4.210938 4.214844 9.539062 6.910156 15.3125 7.824218-1.789062 16.390626 3.371094 32.988282 14.6875 45.59375 1.953125 2.171876 4.679688 3.320313 7.445312 3.320313 1.695313 0 3.40625-.433594 4.960938-1.320313 3.480469-1.992187 6.679688-4.433593 9.507812-7.261718 7.117188-7.117188 11.542969-16.21875 12.8125-25.953125 9.734376-1.269531 18.835938-5.695313 25.953126-12.8125 2.828124-2.828125 5.269531-6.027344 7.261718-9.507813 2.339844-4.089844 1.507813-9.261718-2-12.40625-12.699218-11.398437-29.441406-16.550781-45.953125-14.644531-.925781-5.519531-3.507812-10.8125-7.757812-15.0625l-.695313-.695313c-8.65625-8.65625-8.65625-22.742187 0-31.402343 8.65625-8.65625 22.742188-8.65625 31.398438 0l7.660156 7.660156c1.832031 1.828125 1.828125 4.808594 0 6.636719l-2.84375 2.84375c-3.902344 3.902344-3.90625 10.234375 0 14.140625 1.953125 1.953125 4.511719 2.929687 7.070312 2.929687 2.558594 0 5.117188-.976562 7.070313-2.925781l2.84375-2.84375c1.195313-1.199219 2.242187-2.488281 3.144531-3.851563l68.976563 68.976563c-.265625.261719-.535157.519531-.800781.78125-40.265626 40.265625-40.265626 105.777344 0 146.042969l19.785156 19.78125c4.214844 4.214844 9.539062 6.910156 15.316406 7.824218-1.792969 16.394532 3.371094 32.988282 14.683594 45.59375 1.953125 2.175782 4.679687 3.320313 7.445312 3.320313 1.695313 0 3.40625-.429687 4.960938-1.320313 3.480468-1.988281 6.679687-4.433593 9.507812-7.257812 7.117188-7.121094 11.546875-16.222656 12.8125-25.957031 9.734375-1.265625 18.835938-5.695313 25.953125-12.8125 2.828125-2.824219 5.269531-6.023438 7.261719-9.507813 2.34375-4.089844 1.507812-9.257812-2-12.40625-12.699219-11.394531-29.441406-16.550781-45.949219-14.644531-.929687-5.519531-3.511719-10.8125-7.761719-15.0625l-.695312-.695313c-8.65625-8.65625-8.65625-22.742187 0-31.398437 8.65625-8.660156 22.742188-8.660156 31.402344 0l7.65625 7.65625c1.832031 1.832031 1.832031 4.808594 0 6.640625l-2.839844 2.839844c-3.90625 3.902344-3.90625 10.234375-.003906 14.144531 1.953125 1.949219 4.511718 2.929687 7.070312 2.929687 2.5625 0 5.117188-.976562 7.070313-2.929687l2.84375-2.84375c1.199219-1.199219 2.246093-2.488281 3.144531-3.851563l161.152344 161.152344c1.949218 1.953125 4.511718 2.929688 7.070312 2.929688s5.117188-.976563 7.070313-2.929688c3.902343-3.90625 3.902343-10.238281 0-14.144531zm-125.382813-213.273438c-35.144531 16.894531-78.132812 10.117188-106.28125-18.035156l-7.660156-7.65625c-.582031-.585938-1.183594-1.140625-1.792969-1.683594 16.011719-21.917969 19.148438-50.359375 9.425782-74.84375 6.226562 3.574219 12.089843 8 17.402343 13.3125zm-173.625-25.695312c-2.5 2.5-4.648437 5.261718-6.417969 8.21875-15.527343-8.460938-34.550781-8.257813-49.910156.609374-3.226562-20.3125 1.054688-41.59375 12.867188-59.316406 24.929687 2.375 44.792968 22.355469 47 47.335938-1.222656.976562-2.40625 2.023437-3.539063 3.152344zm-33.039062 54.546874c-7.578125-7.578124-13.363281-16.277343-17.40625-25.554687 11.003906-9.015625 26.8125-9.304687 38.125-.867187-.023438.570312-.039063 1.144531-.039063 1.71875 0 11.273437 4.386719 21.871093 12.359375 29.84375l.691407.695312c3.082031 3.078125 3.082031 8.09375 0 11.171875l-2.773438 2.777344c-1.492188 1.492187-3.476562 2.3125-5.585938 2.3125-2.109374 0-4.09375-.820313-5.585937-2.3125zm80.375 30.816407c-5.214844 4.292969-11.914063 6.296875-18.730469 5.523437-3.015625-.335937-6.039062.714844-8.191406 2.867188-2.152344 2.148437-3.207032 5.167968-2.867188 8.1875.769532 6.820312-1.230468 13.523437-5.523437 18.734375-4.792969-9.109375-5.792969-19.855469-2.574219-29.902344.910156-.710937 1.785156-1.472656 2.613281-2.300781l2.773438-2.773438c.914062-.914062 1.742187-1.878906 2.503906-2.878906 10.070313-3.257812 20.859375-2.265625 29.996094 2.542969zm-24.808594-97.058594c-4.960937-26.8125-24.78125-48.46875-50.578125-56.082031 15.488281-13.171875 34.683594-19.78125 53.890625-19.78125 3.976563 0 7.949219.285156 11.890625.847656 19.386719 21.238281 20.121094 53.515625 2.199219 75.589844-5.699219-1.394532-11.636719-1.578125-17.402344-.574219zm336.9375 223.230469c-35.140625 16.898437-78.128906 10.117187-106.28125-18.03125l-7.65625-7.660156c-.585937-.582032-1.183594-1.140626-1.792969-1.683594 16.007813-21.917969 19.144532-50.359375 9.425782-74.839844 6.222656 3.570312 12.089843 8 17.402343 13.3125zm-173.621094-25.691406c-2.496093 2.496093-4.640625 5.25-6.410156 8.199218-7.402344-4.050781-15.742187-6.210937-24.414063-6.210937-9.105468 0-17.839843 2.378906-25.507812 6.828125-3.222656-20.3125 1.058594-41.585938 12.867188-59.308594 24.933593 2.378906 44.796874 22.359375 47.003906 47.339844-1.226563.976562-2.410156 2.019531-3.539063 3.152344zm-33.039062 54.546874c-7.582031-7.582031-13.367188-16.277343-17.40625-25.558593 11.003906-9.015625 26.8125-9.300781 38.125-.867188-.023438.574219-.042969 1.148438-.042969 1.722657 0 11.273437 4.390625 21.871093 12.359375 29.84375l.695313.695312c3.082031 3.078125 3.082031 8.09375 0 11.171875l-2.773438 2.773437c-1.492188 1.496094-3.476562 2.316407-5.585938 2.316407-2.109374 0-4.097656-.820313-5.589843-2.316407zm80.371093 30.816407c-5.210937 4.292969-11.90625 6.296875-18.730468 5.523437-3.015625-.339844-6.039063.710938-8.1875 2.863282-2.152344 2.152343-3.210938 5.167968-2.867188 8.191406.769532 6.820312-1.234375 13.519531-5.527344 18.734375-4.789062-9.109375-5.792968-19.859375-2.574218-29.90625.910156-.707031 1.785156-1.472657 2.617187-2.300781l2.773438-2.773438c.910156-.914062 1.742187-1.875 2.5-2.878906 10.070312-3.253906 20.859375-2.261719 29.996093 2.546875zm-24.804687-97.058594c-4.964844-26.816406-24.78125-48.472656-50.578125-56.085937.410156-.347657.816406-.714844 1.230469-1.054688.792969-.441406 1.542969-.992188 2.214843-1.664062.0625-.0625.117188-.132813.179688-.199219 14.804688-11.226563 32.53125-16.863281 50.265625-16.863281 3.972656 0 7.945313.285156 11.890625.847656 19.382812 21.238281 20.117188 53.515625 2.195312 75.589844-5.699218-1.394532-11.632812-1.578126-17.398437-.570313zm0 0"/><path d="m373.066406 139.421875 86.152344 86.152344c1.875 1.875 4.417969 2.929687 7.070312 2.929687 2.652344 0 5.195313-1.054687 7.070313-2.929687 39.605469-39.601563 49.875-100.085938 25.558594-150.507813-2.398438-4.972656-8.375-7.0625-13.351563-4.660156-4.976562 2.398438-7.0625 8.375-4.664062 13.347656 19.171875 39.746094 13 86.863282-14.929688 120.292969l-13.910156-13.910156c29.125-36.199219 26.90625-89.441407-6.679688-123.03125-33.589843-33.585938-86.832031-35.804688-123.03125-6.679688l-13.910156-13.910156c33.542969-28.035156 80.792969-34.140625 120.621094-14.769531 4.964844 2.414062 10.949219.347656 13.363281-4.617188 2.417969-4.96875.347657-10.953125-4.617187-13.367187-50.515625-24.566407-111.152344-14.371094-150.894532 25.367187-1.875 1.875-2.929687 4.417969-2.929687 7.070313 0 2.652343 1.054687 5.195312 2.929687 7.070312zm17.246094-78.578125c11.890625 1.675781 23.441406 6.300781 33.449219 13.886719l-33.449219 33.449219zm61.289062 61h-46.667968l32.953125-32.953125c7.441406 9.875 12.007812 21.242187 13.714843 32.953125zm-47.832031 19.996094h47.96875c-1.589843 12.101562-6.21875 23.875-13.914062 34.058594zm-33.453125-81.042969v47.589844l-33.722656-33.722657c10.085938-7.625 21.738281-12.234374 33.722656-13.867187zm0 0"/><path d="m197.082031 431.757812-116.347656-116.347656-27.976563-27.980468c-3.90625-3.902344-10.238281-3.902344-14.144531 0-51.402343 51.40625-51.402343 135.042968 0 186.449218 25.703125 25.699219 59.464844 38.550782 93.226563 38.550782 33.757812 0 67.519531-12.851563 93.222656-38.550782 1.875-1.878906 2.929688-4.421875 2.929688-7.070312 0-2.652344-1.054688-5.195313-2.929688-7.070313zm-89.210937-60.925781h-47.589844c1.628906-11.984375 6.242188-23.636719 13.867188-33.726562zm-.207032 19.996094-33.449218 33.449219c-7.585938-10.007813-12.210938-21.558594-13.886719-33.449219zm13.664063 14.621094v46.667969c-11.707031-1.707032-23.078125-6.273438-32.953125-13.714844zm19.996094-1.164063 34.058593 34.054688c-10.183593 7.695312-21.957031 12.320312-34.058593 13.910156zm-88.570313 55.449219c-41.222656-41.222656-43.476562-106.886719-6.757812-150.78125l13.914062 13.914063c-29.121094 36.199218-26.902344 89.445312 6.679688 123.03125 17.988281 17.988281 41.617187 26.980468 65.246094 26.980468 20.492187 0 40.972656-6.773437 57.785156-20.300781l13.914062 13.914063c-43.894531 36.71875-109.554687 34.464843-150.78125-6.757813zm0 0"/><path d="m466.285156 56.203125c2.632813 0 5.210938-1.070313 7.070313-2.929687 1.859375-1.863282 2.929687-4.441407 2.929687-7.070313 0-2.640625-1.066406-5.210937-2.929687-7.070313-1.859375-1.867187-4.4375-2.929687-7.070313-2.929687-2.628906 0-5.207031 1.0625-7.066406 2.929687-1.859375 1.859376-2.929688 4.429688-2.929688 7.070313 0 2.628906 1.066407 5.210937 2.929688 7.070313 1.859375 1.859374 4.4375 2.929687 7.066406 2.929687zm0 0"/></svg>