<svg id="Capa_1" enable-background="new 0 0 512.005 512.005" height="512" viewBox="0 0 512.005 512.005" width="512" xmlns="http://www.w3.org/2000/svg"><g><g><path d="m371.003 437.001c0 8.28-6.72 15-15 15h-200c-8.28 0-15-6.72-15-15s6.72-15 15-15h200c8.28 0 15 6.72 15 15z" fill="#5b362a"/></g><path d="m371.003 437.001c0 8.28-6.72 15-15 15h-100v-30h100c8.28 0 15 6.72 15 15z" fill="#38211a"/><g><g><g><path d="m436.003 182.001c-8.284 0-15-6.716-15-15v-30c0-8.284 6.716-15 15-15h61c8.284 0 15 6.716 15 15s-6.716 15-15 15h-46v15c0 8.284-6.716 15-15 15z" fill="#5b362a"/></g></g></g><g><path d="m76.003 182.001c-8.284 0-15-6.716-15-15v-15h-46c-8.284 0-15-6.716-15-15s6.716-15 15-15h61c8.284 0 15 6.716 15 15v30c0 8.284-6.716 15-15 15z" fill="#704c55"/></g><g><path d="m271.003 347.001v150c0 8.28-6.72 15-15 15s-15-6.72-15-15v-150c0-8.28 6.72-15 15-15s15 6.72 15 15z" fill="#704c55"/></g><path d="m271.003 347.001v150c0 8.28-6.72 15-15 15v-180c8.28 0 15 6.72 15 15z" fill="#5b362a"/><g><path d="m131.259 511.231c-7.859-2.62-12.106-11.115-9.487-18.974l54.143-162.428c2.62-7.859 11.112-12.107 18.974-9.487 7.859 2.62 12.106 11.115 9.487 18.974l-54.143 162.428c-2.62 7.86-11.115 12.107-18.974 9.487z" fill="#704c55"/></g><g><path d="m361.772 501.744-54.142-162.428c-2.619-7.859 1.628-16.354 9.487-18.974 7.857-2.619 16.354 1.627 18.974 9.487l54.143 162.428c2.619 7.859-1.628 16.354-9.487 18.974-7.861 2.62-16.354-1.627-18.975-9.487z" fill="#5b362a"/></g><g><g><path d="m436.003 152.001h-360c-8.28 0-15 6.72-15 15 0 107.52 87.48 195 195 195s195-87.48 195-195c0-8.28-6.72-15-15-15z" fill="#ff641a"/></g></g><path d="m451.003 167.001c0 107.52-87.48 195-195 195v-210h180c8.28 0 15 6.72 15 15z" fill="#f03800"/><g><path d="m265.003 117.001c-6.677 5.002-16.045 3.573-21-3-4.97-6.63-3.63-16.03 3-21 11.42-8.57 11.53-12.35 0-21-27.28-20.46-28.25-47.81 0-69 6.54-4.917 15.969-3.702 21 3 4.97 6.63 3.63 16.03-3 21-11.42 8.57-11.53 12.35 0 21 27.28 20.46 28.26 47.81 0 69z" fill="#ffbfab"/></g><g><g><path d="m319.003 114.001c-4.971-6.627-3.627-16.03 3-21 11.42-8.565 11.53-12.352 0-21-27.336-20.501-28.202-47.848 0-69 6.627-4.97 16.029-3.628 21 3 4.971 6.627 3.628 16.029-3 21-11.397 8.549-11.553 12.335 0 21 27.335 20.502 28.203 47.848 0 69-6.67 5.002-16.061 3.585-21-3z" fill="#ffbfab"/></g></g><g><path d="m169.003 114.001c-4.971-6.627-3.627-16.03 3-21 11.421-8.566 11.531-12.352 0-21-27.279-20.46-28.254-47.809 0-69 6.628-4.971 16.03-3.627 21 3 4.971 6.627 3.627 16.029-3 21-11.421 8.566-11.531 12.352 0 21 27.279 20.46 28.255 47.809 0 69-6.671 5.002-16.062 3.585-21-3z" fill="#ffbfab"/></g></g></svg>