<svg xmlns="http://www.w3.org/2000/svg" xmlns:xlink="http://www.w3.org/1999/xlink" viewBox="0 0 64 64"><defs><style>.cls-1{fill:url(#linear-gradient);}.cls-2{fill:#cf4055;}.cls-3{fill:url(#linear-gradient-2);}.cls-4{fill:#adb3c4;}.cls-5{fill:#dfe3ea;}.cls-6{fill:url(#linear-gradient-3);}.cls-7{fill:#8288a1;}.cls-8{fill:url(#linear-gradient-4);}.cls-9{fill:#231f20;}</style><linearGradient id="linear-gradient" x1="32" y1="57" x2="32" y2="12" gradientUnits="userSpaceOnUse"><stop offset="0" stop-color="#da5466"/><stop offset="1" stop-color="#f4929c"/></linearGradient><linearGradient id="linear-gradient-2" x1="32" y1="12" x2="32" y2="5" gradientUnits="userSpaceOnUse"><stop offset="0" stop-color="#a0a6ba"/><stop offset="1" stop-color="#c6ccda"/></linearGradient><linearGradient id="linear-gradient-3" y1="63" y2="57" xlink:href="#linear-gradient-2"/><linearGradient id="linear-gradient-4" x1="39.54" y1="57" x2="39.54" y2="12" gradientUnits="userSpaceOnUse"><stop offset="0" stop-color="#d4d8e1"/><stop offset="1" stop-color="#f3f4f5"/></linearGradient></defs><title>Cola Can</title><g id="Cola_Can" data-name="Cola Can"><rect class="cls-1" x="14" y="12" width="36" height="45"/><rect class="cls-2" x="14" y="54" width="36" height="3"/><path class="cls-3" d="M50,12H14l4-7H46Z"/><path class="cls-4" d="M47.06,6.85C46.32,7.07,48.43,7,18,7a3.72,3.72,0,0,1-1.06-.15L18,5H46Z"/><path class="cls-5" d="M46,5H18a2,2,0,0,1,0-4H46A2,2,0,0,1,46,5Z"/><path class="cls-6" d="M50,57l-4,6H18l-4-6Z"/><polygon class="cls-7" points="47.33 61 46 63 18 63 16.67 61 47.33 61"/><path class="cls-8" d="M46,12a18.72,18.72,0,0,0-8,17c1,11,7,15,4,28H33.21C38,50,38,42,34,30c-3-9,2.23-18,2.23-18Z"/><path class="cls-9" d="M51,12c0-.39,0-.25-3.51-6.41A3,3,0,0,0,46,0H18a3,3,0,0,0-1.49,5.59C13,11.79,13,11.62,13,12c0,.1-.09,45.17.17,45.56C17.38,63.87,17.26,64,18,64c30.2,0,28.4.21,28.83-.45C51.07,57.19,51,57.43,51,57,51.05,54,51,70.54,51,12ZM15,56V13H34.61c-1.39,3-4,10.09-1.56,17.32C37,42.06,36.86,49.56,32.66,56ZM35,29.68C32.52,22.4,35.84,15,36.83,13h6.33A19.28,19.28,0,0,0,37,29.09C38,40.14,43.72,43.91,41.2,56H35C38.92,49.25,38.87,41.45,35,29.68Zm4-.77A17.5,17.5,0,0,1,46.3,13H49V56H43.23C45.67,43.62,40,39.36,39,28.91ZM18,2H46a1,1,0,0,1,0,2H18A1,1,0,0,1,18,2Zm.58,4H45.42l2.86,5H15.72ZM45.46,62H18.54l-2.67-4H48.13Z"/></g></svg>