<svg xmlns="http://www.w3.org/2000/svg" xmlns:xlink="http://www.w3.org/1999/xlink" viewBox="0 0 64 64"><defs><style>.cls-1{fill:url(#linear-gradient);}.cls-2{fill:#c7cdd8;}.cls-3{fill:url(#linear-gradient-2);}.cls-4{fill:#8a6762;}.cls-5{fill:url(#linear-gradient-3);}.cls-6{fill:url(#linear-gradient-4);}.cls-7{fill:url(#linear-gradient-5);}.cls-8{fill:url(#linear-gradient-6);}.cls-9{fill:url(#linear-gradient-7);}.cls-10{fill:url(#linear-gradient-8);}.cls-11{fill:url(#linear-gradient-9);}.cls-12{fill:#231f20;}</style><linearGradient id="linear-gradient" x1="32" y1="63" x2="32" y2="1" gradientUnits="userSpaceOnUse"><stop offset="0" stop-color="#d4d8e1"/><stop offset="1" stop-color="#f3f4f5"/></linearGradient><linearGradient id="linear-gradient-2" x1="40.53" y1="43.75" x2="40.53" y2="13" gradientUnits="userSpaceOnUse"><stop offset="0" stop-color="#9b756d"/><stop offset="1" stop-color="#bc9388"/></linearGradient><linearGradient id="linear-gradient-3" x1="18.51" y1="29.83" x2="18.51" y2="22.17" gradientUnits="userSpaceOnUse"><stop offset="0" stop-color="#e9a254"/><stop offset="1" stop-color="#f4bb79"/></linearGradient><linearGradient id="linear-gradient-4" x1="20.5" y1="24.02" x2="20.5" y2="20" xlink:href="#linear-gradient-3"/><linearGradient id="linear-gradient-5" x1="23.49" y1="32.89" x2="23.49" y2="26.84" xlink:href="#linear-gradient-3"/><linearGradient id="linear-gradient-6" x1="12" y1="37.5" x2="23" y2="37.5" gradientUnits="userSpaceOnUse"><stop offset="0" stop-color="#da5466"/><stop offset="1" stop-color="#f4929c"/></linearGradient><linearGradient id="linear-gradient-7" x1="20.62" y1="39.5" x2="31" y2="39.5" xlink:href="#linear-gradient-6"/><linearGradient id="linear-gradient-8" x1="27" y1="46.25" x2="37.13" y2="46.25" gradientUnits="userSpaceOnUse"><stop offset="0" stop-color="#6ab891"/><stop offset="1" stop-color="#85cba9"/></linearGradient><linearGradient id="linear-gradient-9" x1="35.21" y1="48.55" x2="42.89" y2="48.55" xlink:href="#linear-gradient-8"/></defs><title>Steak</title><g id="Steak"><circle class="cls-1" cx="32" cy="32" r="31"/><circle class="cls-2" cx="32" cy="32" r="19"/><path class="cls-3" d="M37.08,43.55c-6.22-1.13-3-7.25-3-11.38,0-4.63-6.87-7.16-4.63-13.88C30.17,16,32,13,40,13c7,0,11,5,12,13C52.94,33.55,47.59,45.43,37.08,43.55Z"/><path class="cls-4" d="M34,31.36c-.65-3.77-5.64-6.27-4.92-11.47C29.73,24.73,34.58,26.23,34,31.36Z"/><path class="cls-4" d="M37.08,43.55C33.91,43,33,41.1,33.29,38c.25,2.13,1.66,3.17,3.79,3.56,8.81,1.58,14.44-6.6,15-14.87C52.59,34.48,47.16,45.36,37.08,43.55Z"/><path class="cls-4" d="M33.29,38c-.26-2,.44-4.46.66-6.63C34.29,32.82,33.48,35.85,33.29,38Z"/><path class="cls-5" d="M26.26,26c-9.19,2.39,13.37-3.46-14.51,3.79l-1-3.87,14.51-3.79Z"/><path class="cls-6" d="M28,20v4H25.73l-.48-1.83C16.84,24.37,19.6,24,13,24V20Z"/><path class="cls-7" d="M31.26,29l-1,3.86c-16.4-4.44-14.43-3.82-14.43-4.12,7.47-1.95,7.3-1.93,7.4-1.93Z"/><circle class="cls-8" cx="17.5" cy="37.5" r="5.5"/><path class="cls-9" d="M31,39.5A5.5,5.5,0,0,1,20.62,42,5.5,5.5,0,0,0,22.38,35,5.51,5.51,0,0,1,31,39.5Z"/><path class="cls-10" d="M27,52a21.31,21.31,0,0,1,1.17-7.7,5.44,5.44,0,0,0,2.64-3.39,3.87,3.87,0,0,1,2.56-.43c.34,1.49,1.35,2.64,3.71,3.07C37.7,47.29,31.79,52.8,27,52Z"/><path class="cls-11" d="M38.31,53.87a23.76,23.76,0,0,1-3.1-5.53,6.23,6.23,0,0,0,1.87-4.79,11.65,11.65,0,0,0,5.59-.32C43.54,46.71,41.78,52.16,38.31,53.87Z"/><path class="cls-12" d="M32,0A32,32,0,1,0,64,32,32,32,0,0,0,32,0Zm0,62A30,30,0,1,1,62,32,30,30,0,0,1,32,62Z"/><path class="cls-12" d="M53,25.88C51.71,15.62,45.92,10.45,35.7,12.36A19.9,19.9,0,0,0,16.82,19H13a1,1,0,0,0-1,1c0,4.36-.07,4.17.19,4.55-3.11.81-2.8.22-1.41,5.53A1,1,0,0,0,12,30.8c.15,0-.16.57.1,3.09a6.49,6.49,0,0,0,3.77,9.89A19.89,19.89,0,0,0,26,51.06c0,.76-.17,1.76.81,1.93a8.62,8.62,0,0,0,5.26-1c5,0,2.52-1.54,5.41,2.46,1.16,1.61,4.75-1.88,5.91-6a19.93,19.93,0,0,0,8.44-14A20.66,20.66,0,0,0,53,25.88Zm-2,.24c.83,6.7-3.63,16.62-11.58,16.62-5.51,0-5.62-2.18-4.81-7,.74-4.38.7-5.37-2.13-9.18-1.7-2.28-3.3-4.44-2.14-7.93C30.81,17.23,31.88,14,40,14,47.85,14,50.32,20.59,51,26.12ZM23.19,27.88,30,29.73l-.52,1.93L19.29,28.89Zm3.7-1.07c.56-.46.37-.92.13-1.81,1,0,1.45.1,1.81-.47a19.63,19.63,0,0,0,2.05,3.19C31.09,28,31.69,28.11,26.89,26.81ZM31.32,14a7.66,7.66,0,0,0-3.15,5c-.29-.05,1,0-8.6,0A17.84,17.84,0,0,1,31.32,14ZM14,21H27v2h-.5l-.28-1.08A1,1,0,0,0,25,21.2C16.74,23.36,19.18,23,14,23Zm-2,5.67,12.58-3.28.5,1.94L12.46,28.61Zm3.46,3.24c.28.09.06,0,14.54,3.94a1,1,0,0,0,.76-.09c.49-.29.41-.4,1.44-4.21,1.18,1.94,1,2.92.49,5.82-.78,4.62-.11,4-.65,4.11a6.5,6.5,0,0,0-9.29-5.85A6.46,6.46,0,0,0,14,32a15.8,15.8,0,0,1,.1-1.78Zm6.52,12.33a6.47,6.47,0,0,0,1.71-6.83,4.49,4.49,0,1,1-1.71,6.83ZM13,37.5A4.5,4.5,0,1,1,17.5,42,4.51,4.51,0,0,1,13,37.5Zm5.53,6.41a6.06,6.06,0,0,0,1.75-.55A6.47,6.47,0,0,0,25.5,46c1.73,0,1-1,.64,3A18,18,0,0,1,18.53,43.91ZM29,45a6.46,6.46,0,0,0,2.63-3.34,2.71,2.71,0,0,1,1-.2,4.73,4.73,0,0,0,3.47,2.91c-.22,2.8-4.32,6.69-8.1,6.74A19.93,19.93,0,0,1,29,45Zm9.59,7.56a23,23,0,0,1-2.23-4,7.83,7.83,0,0,0,1.73-3.83,12.27,12.27,0,0,0,3.77-.2C42.09,47.24,40.82,50.89,38.59,52.53Zm5.28-7a9.89,9.89,0,0,0-.07-1.65,12,12,0,0,0,3.29-2.08A17.86,17.86,0,0,1,43.87,45.51Z"/><path class="cls-12" d="M34.21,25.21l.54-.55,2.09,2.09-1.05,1a1,1,0,0,0,1.42,1.42l1-1.05,2.09,2.09-1.05,1a1,1,0,0,0,1.42,1.42l1-1.05,2.09,2.09-2.09,2.09-3.29-3.3A1,1,0,0,0,37,34l3.3,3.29-2.05,2A1,1,0,0,0,39,41c.52,0,.52-.1,2.75-2.34.62.63.77.84,1.25.84a1,1,0,0,0,.71-1.71l-.55-.54,2.09-2.09c.35.35.54.59,1,.59A1,1,0,0,0,47,34l-.3-.29,1.05-1a1,1,0,0,0-1.42-1.42l-1,1.05-2.09-2.09,2.09-2.09,1,1.05a1,1,0,0,0,1.42-1.42l-1.05-1,2.05-2a1,1,0,0,0-1.42-1.42l-2,2.05-2.09-2.09,2.09-2.09c1.23,1.23,1.44,1.59,2,1.59A1,1,0,0,0,48,21c-1.39-1.39-1.35-1.23-1.25-1.33a1,1,0,0,0-1.42-1.42c-.1.1.06.15-1.33-1.25a1,1,0,0,0-1.42,1.42l1.3,1.29-2.09,2.09-2.09-2.09,1.55-1.54a1,1,0,0,0-1.42-1.42l-1.54,1.55L36,16a1,1,0,0,0-1.42,1.42l2.3,2.29-2.09,2.09-.29-.3A1,1,0,0,0,33,23l.3.29-.55.54A1,1,0,0,0,34.21,25.21Zm9.63,1.54-2.09,2.09-2.09-2.09,2.09-2.09Zm-5.59-5.59,2.09,2.09-2.09,2.09-2.09-2.09Z"/></g></svg>